<?xml version="1.0" encoding="UTF-8" standalone="no"?>
<!-- Created with Inkscape (http://www.inkscape.org/) -->

<svg
   width="16.999996mm"
   height="23.696999mm"
   viewBox="0 0 16.999996 23.696999"
   version="1.1"
   id="svg1"
   xmlns="http://www.w3.org/2000/svg"
   xmlns:svg="http://www.w3.org/2000/svg">
  <defs
     id="defs1" />
  <rect
     style="fill:#ff4200;fill-opacity:1;stroke:none;stroke-width:0.58191;stroke-linecap:square;stroke-miterlimit:90;stroke-opacity:1;paint-order:markers stroke fill"
     id="rect23-74-2"
     width="23.697001"
     height="3.7862318"
     x="4.8124889e-07"
     y="2.0269091"
     rx="2"
     ry="2"
     transform="matrix(0,1,1,0,0,0)" />
  <rect
     style="fill:#00a6ff;fill-opacity:1;stroke-width:0.58191;stroke-linecap:square;stroke-miterlimit:90;paint-order:markers stroke fill"
     id="rect23-7-1-8"
     width="23.696585"
     height="3.7862318"
     x="0.0002064749"
     y="11.186859"
     rx="2"
     ry="2"
     transform="matrix(0,1,1,0,0,0)" />
  <rect
     style="fill:#3bff00;fill-opacity:1;stroke-width:0.58191;stroke-linecap:square;stroke-miterlimit:90;paint-order:markers stroke fill"
     id="rect23-2-8-2"
     width="23.696585"
     height="3.7862318"
     x="0.0002064749"
     y="6.6068883"
     rx="2"
     ry="2"
     transform="matrix(0,1,1,0,0,0)" />
  <rect
     style="fill:#cccccc;fill-opacity:1;stroke:none;stroke-width:1.58257;stroke-linecap:square;stroke-miterlimit:90;stroke-dasharray:none;stroke-opacity:1;paint-order:stroke fill markers"
     id="rect25-9"
     width="17"
     height="17.000463"
     x="3.6469578e-07"
     y="3.3482671"
     rx="1.5"
     ry="1.5" />
  <path
     id="rect86-3-5-9"
     style="fill:#d8a70d;fill-opacity:1;stroke-width:0.239784;stroke-linecap:square;stroke-miterlimit:90;stroke-opacity:0.64841;paint-order:markers stroke fill"
     d="m 4.2484914,7.5969834 c 2.341204,-2.341203 6.1221746,-2.329821 8.4775246,0.02551 2.35534,2.355344 2.36673,6.1363166 0.0255,8.4775266 -2.34121,2.341203 -6.1221806,2.329819 -8.4775236,-0.02551 -2.355346,-2.355347 -2.366728,-6.1363226 -0.02551,-8.4775276 z" />
  <path
     id="rect86-3-6"
     style="fill:none;fill-opacity:1;stroke:#fefbf6;stroke-width:1.5;stroke-linecap:round;stroke-miterlimit:90;stroke-dasharray:none;stroke-opacity:1;paint-order:normal"
     d="m 4.2015284,7.5500234 c 2.367065,-2.367064 6.1897976,-2.355556 8.5711676,0.02579 2.38135,2.381361 2.39286,6.2040966 0.0258,8.5711676 -2.36707,2.367063 -6.1898066,2.355553 -8.5711656,-0.0258 -2.381362,-2.381363 -2.39287,-6.2041026 -0.0258,-8.5711666 z" />
  <path
     id="rect30-5-3-0"
     style="fill:#ffffff;fill-opacity:0.0955568;stroke:none;stroke-width:1.04736;stroke-linecap:square;stroke-miterlimit:90;stroke-dasharray:none;stroke-opacity:1;paint-order:stroke fill markers"
     d="m 7.1035454,5.8602674 v 1.097608 h -0.661458 v -0.697115 h -0.499711 v 0.697115 h -0.661459 v -0.415995 h -0.500228 v 0.415995 h -0.556038 v 0.500228 h 0.556038 v 0.661458 h -0.661458 v -0.716752 h -0.499711 v 0.716752 h -0.185518 v 0.499711 h 0.185518 v 0.661458 h -1.015442 v 0.03876 h -0.146244 v 5.0477546 h 0.0083 v 0.05943 h 1.153418 v 1.940966 h 0.413411 v 0.381889 h 0.747758 v 0.221692 h 0.500228 V 16.74953 h 0.661459 v 0.717786 h 0.499711 V 16.74953 h 0.661458 v 0.951363 h 0.500229 V 16.74953 h 0.66146 v 0.753959 h 0.49971 V 16.74953 h 0.66146 v 0.837675 h 0.50022 V 16.74953 h 0.6614596 v 0.173633 h 0.49971 V 16.74953 h 1.25781 v -0.499715 h -0.0961 v -0.661458 h 0.66146 v 0.165881 h 0.50022 v -0.165881 h 0.33693 v -0.500228 h -0.33696 v -0.661458 h 0.88212 v -0.499712 h -0.88212 v -0.661458 h 0.85318 v -0.500228 h -0.85318 v -0.661458 h 0.90279 v -0.499711 h -0.90279 v -0.661458 h 0.64854 v -0.500228 h -0.64854 V 9.7809584 h 0.63718 v -0.500228 h -0.63718 v -0.661458 h 0.23461 v -0.499711 h -0.23461 v -0.02274 h -0.50022 v 0.02274 h -0.66146 v -1.531689 h -0.50023 v 0.370003 h -0.66146 v -0.591179 h -0.49971 v 0.591179 H 9.9266464 v -0.886251 h -0.50023 v 0.886251 h -0.66145 v -1.020093 h -0.49972 v 1.020093 h -0.66145 v -1.097608 z m -1.822628,1.597836 h 0.661459 v 0.661458 h -0.661459 z m 1.16117,0 h 0.661458 v 0.661458 h -0.661458 z m 1.161689,0 h 0.66145 v 0.661458 h -0.66145 z m 1.16117,0 h 0.66145 v 0.661458 h -0.66145 z m 1.16168,0 h 0.6614596 v 0.661458 H 9.9266264 Z m 1.1611696,0 h 0.66146 v 0.661458 h -0.66146 z m -6.9685646,1.161169 h 0.661458 v 0.661458 h -0.661458 z m 1.161686,0 h 0.661459 v 0.661458 h -0.661459 z m 1.16117,0 h 0.661458 v 0.661458 h -0.661458 z m 1.161689,0 h 0.66145 v 0.661458 h -0.66145 z m 1.16117,0 h 0.66145 v 0.661458 h -0.66145 z m 1.16168,0 h 0.6614596 v 0.661458 H 9.9266264 Z m 1.1611696,0 h 0.66146 v 0.661458 h -0.66146 z m 1.16169,0 h 0.66146 v 0.661458 h -0.66146 z m -9.2914236,1.161686 h 0.661458 v 0.6614596 h -0.661458 z m 1.161169,0 h 0.661458 v 0.6614596 h -0.661458 z m 1.161686,0 h 0.661459 v 0.6614596 h -0.661459 z m 1.16117,0 h 0.661458 v 0.6614596 h -0.661458 z m 1.161689,0 h 0.66145 v 0.6614596 h -0.66145 z m 1.16117,0 h 0.66145 v 0.6614596 h -0.66145 z m 1.16168,0 H 10.588086 V 10.442418 H 9.9266264 Z m 1.1611696,0 h 0.66146 v 0.6614596 h -0.66146 z m 1.16169,0 h 0.66146 v 0.6614596 h -0.66146 z M 2.9580624,10.942646 h 0.661458 v 0.661458 h -0.661458 z m 1.161169,0 h 0.661458 v 0.661458 h -0.661458 z m 1.161686,0 h 0.661459 v 0.661458 h -0.661459 z m 1.16117,0 h 0.661458 v 0.661458 h -0.661458 z m 1.161689,0 h 0.66145 v 0.661458 h -0.66145 z m 1.16117,0 h 0.66145 v 0.661458 h -0.66145 z m 1.16168,0 h 0.6614596 v 0.661458 H 9.9266264 Z m 1.1611696,0 h 0.66146 v 0.661458 h -0.66146 z m 1.16169,0 h 0.66146 v 0.661458 h -0.66146 z m -9.2914236,1.161169 h 0.661458 v 0.661458 h -0.661458 z m 1.161169,0 h 0.661458 v 0.661458 h -0.661458 z m 1.161686,0 h 0.661459 v 0.661458 h -0.661459 z m 1.16117,0 h 0.661458 v 0.661458 h -0.661458 z m 1.161689,0 h 0.66145 v 0.661458 h -0.66145 z m 1.16117,0 h 0.66145 v 0.661458 h -0.66145 z m 1.16168,0 h 0.6614596 v 0.661458 H 9.9266264 Z m 1.1611696,0 h 0.66146 v 0.661458 h -0.66146 z m 1.16169,0 h 0.66146 v 0.661458 h -0.66146 z m -9.2914236,1.161686 h 0.661458 v 0.661458 h -0.661458 z m 1.161169,0 h 0.661458 v 0.661458 h -0.661458 z m 1.161686,0 h 0.661459 v 0.661458 h -0.661459 z m 1.16117,0 h 0.661458 v 0.661458 h -0.661458 z m 1.161689,0 h 0.66145 v 0.661458 h -0.66145 z m 1.16117,0 h 0.66145 v 0.661458 h -0.66145 z m 1.16168,0 h 0.6614596 v 0.661458 H 9.9266264 Z m 1.1611696,0 h 0.66146 v 0.661458 h -0.66146 z m 1.16169,0 h 0.66146 v 0.661458 h -0.66146 z m -8.1302546,1.16117 h 0.661458 v 0.661458 h -0.661458 z m 1.161686,0 h 0.661459 v 0.661458 h -0.661459 z m 1.16117,0 h 0.661458 v 0.661458 h -0.661458 z m 1.161689,0 h 0.66145 v 0.661458 h -0.66145 z m 1.16117,0 h 0.66145 v 0.661458 h -0.66145 z m 1.16168,0 h 0.6614596 v 0.661458 H 9.9266264 Z m 1.1611696,0 h 0.66146 v 0.661458 h -0.66146 z m 1.16169,0 h 0.66146 v 0.661458 h -0.66146 z m -8.1302546,1.161686 h 0.661458 v 0.661458 h -0.661458 z m 1.161686,0 h 0.661459 v 0.661458 h -0.661459 z m 1.16117,0 h 0.661458 v 0.661458 h -0.661458 z m 1.161689,0 h 0.66145 v 0.661458 h -0.66145 z m 1.16117,0 h 0.66145 v 0.661458 h -0.66145 z m 1.16168,0 h 0.6614596 v 0.661458 H 9.9266264 Z m 1.1611696,0 h 0.66146 v 0.661458 h -0.66146 z" />
</svg>
