<?xml version="1.0" encoding="UTF-8" standalone="no"?>
<!-- Created with Inkscape (http://www.inkscape.org/) -->

<svg
   width="75.064903mm"
   height="42.224007mm"
   viewBox="0 0 75.064904 42.224007"
   version="1.1"
   id="svg1"
   xmlns="http://www.w3.org/2000/svg"
   xmlns:svg="http://www.w3.org/2000/svg">
  <defs
     id="defs1" />
  <rect
     style="fill:#2b2b45;fill-opacity:0;stroke:none;stroke-width:1.41554;stroke-linecap:square;stroke-miterlimit:90;stroke-dasharray:none;stroke-opacity:1;paint-order:normal"
     id="rect122-7"
     width="75.064903"
     height="42.224007"
     x="8.8207453e-06"
     y="-1.117341e-05"
     clip-path="none" />
  <rect
     style="fill:#ff4200;fill-opacity:1;stroke:none;stroke-width:0.58191;stroke-linecap:square;stroke-miterlimit:90;stroke-opacity:1;paint-order:markers stroke fill"
     id="rect23-74-2"
     width="23.697001"
     height="3.7862318"
     x="8.9626055"
     y="7.388833"
     rx="2"
     ry="2"
     transform="matrix(0,1,1,0,0,0)" />
  <rect
     style="fill:#00a6ff;fill-opacity:1;stroke-width:0.58191;stroke-linecap:square;stroke-miterlimit:90;paint-order:markers stroke fill"
     id="rect23-7-1-8"
     width="23.696585"
     height="3.7862318"
     x="8.9628115"
     y="16.548784"
     rx="2"
     ry="2"
     transform="matrix(0,1,1,0,0,0)" />
  <rect
     style="fill:#3bff00;fill-opacity:1;stroke-width:0.58191;stroke-linecap:square;stroke-miterlimit:90;paint-order:markers stroke fill"
     id="rect23-2-8-2"
     width="23.696585"
     height="3.7862318"
     x="8.9628115"
     y="11.968812"
     rx="2"
     ry="2"
     transform="matrix(0,1,1,0,0,0)" />
  <rect
     style="fill:#cccccc;fill-opacity:1;stroke:none;stroke-width:1.58257;stroke-linecap:square;stroke-miterlimit:90;stroke-dasharray:none;stroke-opacity:1;paint-order:stroke fill markers"
     id="rect25-9"
     width="17"
     height="17.000463"
     x="5.3619242"
     y="12.310872"
     rx="1.5"
     ry="1.5" />
  <path
     id="rect86-3-5-9"
     style="fill:#d8a70d;fill-opacity:1;stroke-width:0.239784;stroke-linecap:square;stroke-miterlimit:90;stroke-opacity:0.64841;paint-order:markers stroke fill"
     d="m 9.6104154,16.559588 c 2.3412046,-2.341203 6.1221756,-2.329821 8.4775256,0.02551 2.35534,2.355344 2.36673,6.136316 0.0255,8.477526 -2.34121,2.341203 -6.122181,2.329819 -8.4775246,-0.02551 -2.355346,-2.355347 -2.366728,-6.136322 -0.02551,-8.477527 z" />
  <path
     id="rect86-3-6"
     style="fill:none;fill-opacity:1;stroke:#fefbf6;stroke-width:1.5;stroke-linecap:round;stroke-miterlimit:90;stroke-dasharray:none;stroke-opacity:1;paint-order:normal"
     d="m 9.5634524,16.512628 c 2.3670656,-2.367064 6.1897986,-2.355556 8.5711686,0.02579 2.38135,2.381361 2.39286,6.204096 0.0258,8.571167 -2.36707,2.367063 -6.189807,2.355553 -8.5711666,-0.0258 -2.381362,-2.381363 -2.39287,-6.204102 -0.0258,-8.571166 z" />
  <path
     id="rect30-5-3-0"
     style="fill:#ffffff;fill-opacity:0.0955568;stroke:none;stroke-width:1.04736;stroke-linecap:square;stroke-miterlimit:90;stroke-dasharray:none;stroke-opacity:1;paint-order:stroke fill markers"
     d="M 12.46547,14.822872 V 15.92048 H 11.804012 V 15.223365 H 11.304301 V 15.92048 H 10.642842 V 15.504485 H 10.142614 V 15.92048 H 9.5865754 v 0.500228 h 0.5560386 v 0.661458 H 9.4811554 v -0.716752 h -0.499711 v 0.716752 h -0.185518 v 0.499711 h 0.185518 v 0.661458 h -1.015442 v 0.03876 h -0.146244 v 5.047754 h 0.0083 v 0.05943 h 1.153418 v 1.940966 h 0.413411 v 0.381889 h 0.7477586 v 0.221692 h 0.500228 v -0.221692 h 0.661459 v 0.717786 h 0.499711 v -0.717786 h 0.661458 v 0.951363 h 0.500229 v -0.951363 h 0.66146 v 0.753959 h 0.49971 v -0.753959 h 0.66146 v 0.837675 h 0.50022 v -0.837675 h 0.66146 v 0.173633 h 0.49971 v -0.173633 h 1.25781 v -0.499715 h -0.0961 v -0.661458 h 0.66146 v 0.165881 h 0.50022 v -0.165881 h 0.33693 v -0.500228 h -0.33696 v -0.661458 h 0.88212 v -0.499712 h -0.88212 v -0.661458 h 0.85318 v -0.500228 h -0.85318 v -0.661458 h 0.90279 v -0.499711 h -0.90279 V 19.90525 h 0.64854 v -0.500228 h -0.64854 v -0.661459 h 0.63718 v -0.500228 h -0.63718 v -0.661458 h 0.23461 v -0.499711 h -0.23461 v -0.02274 h -0.50022 v 0.02274 h -0.66146 v -1.531689 h -0.50023 v 0.370003 h -0.66146 v -0.591179 h -0.49971 v 0.591179 h -0.66146 v -0.886251 h -0.50023 v 0.886251 h -0.66145 v -1.020093 h -0.49972 v 1.020093 h -0.66145 v -1.097608 z m -1.822628,1.597836 h 0.661459 v 0.661458 h -0.661459 z m 1.16117,0 h 0.661458 v 0.661458 h -0.661458 z m 1.161689,0 h 0.66145 v 0.661458 h -0.66145 z m 1.16117,0 h 0.66145 v 0.661458 h -0.66145 z m 1.16168,0 h 0.66146 v 0.661458 h -0.66146 z m 1.16117,0 h 0.66146 v 0.661458 h -0.66146 z m -6.9685656,1.161169 h 0.6614586 v 0.661458 H 9.4811554 Z m 1.1616866,0 h 0.661459 v 0.661458 h -0.661459 z m 1.16117,0 h 0.661458 v 0.661458 h -0.661458 z m 1.161689,0 h 0.66145 v 0.661458 h -0.66145 z m 1.16117,0 h 0.66145 v 0.661458 h -0.66145 z m 1.16168,0 h 0.66146 v 0.661458 h -0.66146 z m 1.16117,0 h 0.66146 v 0.661458 h -0.66146 z m 1.16169,0 h 0.66146 v 0.661458 h -0.66146 z m -9.2914246,1.161686 h 0.661458 v 0.661459 h -0.661458 z m 1.161169,0 h 0.6614586 v 0.661459 H 9.4811554 Z m 1.1616866,0 h 0.661459 v 0.661459 h -0.661459 z m 1.16117,0 h 0.661458 v 0.661459 h -0.661458 z m 1.161689,0 h 0.66145 v 0.661459 h -0.66145 z m 1.16117,0 h 0.66145 v 0.661459 h -0.66145 z m 1.16168,0 h 0.66146 v 0.661459 h -0.66146 z m 1.16117,0 h 0.66146 v 0.661459 h -0.66146 z m 1.16169,0 h 0.66146 v 0.661459 h -0.66146 z M 8.3199864,19.90525 h 0.661458 v 0.661458 h -0.661458 z m 1.161169,0 h 0.6614586 v 0.661458 H 9.4811554 Z m 1.1616866,0 h 0.661459 v 0.661458 h -0.661459 z m 1.16117,0 h 0.661458 v 0.661458 h -0.661458 z m 1.161689,0 h 0.66145 v 0.661458 h -0.66145 z m 1.16117,0 h 0.66145 v 0.661458 h -0.66145 z m 1.16168,0 h 0.66146 v 0.661458 h -0.66146 z m 1.16117,0 h 0.66146 v 0.661458 h -0.66146 z m 1.16169,0 h 0.66146 v 0.661458 h -0.66146 z m -9.2914246,1.161169 h 0.661458 v 0.661458 h -0.661458 z m 1.161169,0 h 0.6614586 v 0.661458 H 9.4811554 Z m 1.1616866,0 h 0.661459 v 0.661458 h -0.661459 z m 1.16117,0 h 0.661458 v 0.661458 h -0.661458 z m 1.161689,0 h 0.66145 v 0.661458 h -0.66145 z m 1.16117,0 h 0.66145 v 0.661458 h -0.66145 z m 1.16168,0 h 0.66146 v 0.661458 h -0.66146 z m 1.16117,0 h 0.66146 v 0.661458 h -0.66146 z m 1.16169,0 h 0.66146 v 0.661458 h -0.66146 z m -9.2914246,1.161686 h 0.661458 v 0.661458 h -0.661458 z m 1.161169,0 h 0.6614586 v 0.661458 H 9.4811554 Z m 1.1616866,0 h 0.661459 v 0.661458 h -0.661459 z m 1.16117,0 h 0.661458 v 0.661458 h -0.661458 z m 1.161689,0 h 0.66145 v 0.661458 h -0.66145 z m 1.16117,0 h 0.66145 v 0.661458 h -0.66145 z m 1.16168,0 h 0.66146 v 0.661458 h -0.66146 z m 1.16117,0 h 0.66146 v 0.661458 h -0.66146 z m 1.16169,0 h 0.66146 v 0.661458 h -0.66146 z m -8.1302556,1.16117 h 0.6614586 v 0.661458 H 9.4811554 Z m 1.1616866,0 h 0.661459 v 0.661458 h -0.661459 z m 1.16117,0 h 0.661458 v 0.661458 h -0.661458 z m 1.161689,0 h 0.66145 v 0.661458 h -0.66145 z m 1.16117,0 h 0.66145 v 0.661458 h -0.66145 z m 1.16168,0 h 0.66146 v 0.661458 h -0.66146 z m 1.16117,0 h 0.66146 v 0.661458 h -0.66146 z m 1.16169,0 h 0.66146 v 0.661458 h -0.66146 z m -8.1302556,1.161686 h 0.6614586 v 0.661458 H 9.4811554 Z m 1.1616866,0 h 0.661459 v 0.661458 h -0.661459 z m 1.16117,0 h 0.661458 v 0.661458 h -0.661458 z m 1.161689,0 h 0.66145 v 0.661458 h -0.66145 z m 1.16117,0 h 0.66145 v 0.661458 h -0.66145 z m 1.16168,0 h 0.66146 v 0.661458 h -0.66146 z m 1.16117,0 h 0.66146 v 0.661458 h -0.66146 z" />
  <path
     style="font-weight:500;font-size:11.2889px;font-family:Sans;-inkscape-font-specification:'Sans, Medium';fill:#fefbf7;stroke-width:1.5;stroke-linecap:round;stroke-miterlimit:90"
     d="m 26.663211,15.801463 q 0.27094,0 0.47414,0.158045 0.2032,0.158044 0.2032,0.530578 0,0.361245 -0.2032,0.530578 -0.2032,0.158045 -0.47414,0.158045 -0.28222,0 -0.48542,-0.158045 -0.2032,-0.169333 -0.2032,-0.530578 0,-0.372534 0.2032,-0.530578 0.2032,-0.158045 0.48542,-0.158045 z m 0.58703,2.314225 v 6.084717 h -1.19663 v -6.084717 z m 4.84294,-0.112889 q 0.38382,0 0.69991,0.06773 l -0.13546,1.117601 q -0.13547,-0.03387 -0.31609,-0.05644 -0.18063,-0.02258 -0.36125,-0.02258 -0.42898,0 -0.8128,0.225778 -0.38382,0.214489 -0.63218,0.643467 -0.23707,0.41769 -0.23707,1.02729 v 3.194759 h -1.19662 v -6.084717 h 0.94827 l 0.15804,1.083734 h 0.0564 q 0.28222,-0.485422 0.74507,-0.835378 0.46284,-0.361245 1.08373,-0.361245 z m 6.94267,3.138314 q 0,1.524002 -0.77893,2.348091 -0.77894,0.82409 -2.09974,0.82409 -0.82409,0 -1.46755,-0.372534 -0.63218,-0.372533 -1.00472,-1.072445 -0.36124,-0.711201 -0.36124,-1.727202 0,-1.501424 0.76764,-2.314224 0.76765,-0.82409 2.09974,-0.82409 0.83538,0 1.46756,0.372534 0.64346,0.361244 1.00471,1.061156 0.37253,0.699912 0.37253,1.704624 z m -4.48169,0 q 0,1.02729 0.38382,1.625602 0.39511,0.587023 1.24178,0.587023 0.83538,0 1.2192,-0.587023 0.39511,-0.598312 0.39511,-1.625602 0,-1.016001 -0.39511,-1.591735 -0.38382,-0.575734 -1.23049,-0.575734 -0.84667,0 -1.23049,0.575734 -0.38382,0.575734 -0.38382,1.591735 z m 12.80161,-3.138314 q 1.03858,0 1.55787,0.530578 0.51929,0.530578 0.51929,1.704624 v 3.962404 h -1.19662 v -3.804359 q 0,-1.399824 -1.14018,-1.399824 -0.82409,0 -1.17405,0.496712 -0.33866,0.496711 -0.33866,1.444979 v 3.262492 h -1.19663 v -3.804359 q 0,-1.399824 -1.14018,-1.399824 -0.85795,0 -1.18533,0.553156 -0.31609,0.553156 -0.31609,1.580446 v 3.070581 h -1.19662 v -6.084717 h 0.94826 l 0.16934,0.812801 h 0.0564 q 0.28222,-0.451556 0.75636,-0.688623 0.47413,-0.237067 1.04987,-0.237067 1.38853,0 1.85137,0.993423 h 0.0565 q 0.3048,-0.508 0.8128,-0.745067 0.51929,-0.248356 1.10631,-0.248356 z m 4.49299,-2.201336 q 0.27093,0 0.47413,0.158045 0.2032,0.158044 0.2032,0.530578 0,0.361245 -0.2032,0.530578 -0.2032,0.158045 -0.47413,0.158045 -0.28222,0 -0.48542,-0.158045 -0.2032,-0.169333 -0.2032,-0.530578 0,-0.372534 0.2032,-0.530578 0.2032,-0.158045 0.48542,-0.158045 z m 0.58702,2.314225 v 6.084717 h -1.19662 v -6.084717 z m 7.08944,0 v 6.084717 h -0.95956 l -0.16933,-0.801512 h -0.0564 q -0.3048,0.474134 -0.82409,0.699912 -0.508,0.214489 -1.09502,0.214489 -1.06116,0 -1.63689,-0.530578 -0.56445,-0.530579 -0.56445,-1.682046 v -3.984982 h 1.21921 v 3.804359 q 0,1.411113 1.23049,1.411113 0.93697,0 1.28693,-0.553156 0.36125,-0.553156 0.36125,-1.591735 v -3.070581 z m 8.64731,-0.112889 q 1.03858,0 1.55786,0.530578 0.51929,0.530578 0.51929,1.704624 v 3.962404 h -1.19662 v -3.804359 q 0,-1.399824 -1.14018,-1.399824 -0.82409,0 -1.17404,0.496712 -0.33867,0.496711 -0.33867,1.444979 v 3.262492 h -1.19662 v -3.804359 q 0,-1.399824 -1.14018,-1.399824 -0.85796,0 -1.18534,0.553156 -0.31609,0.553156 -0.31609,1.580446 v 3.070581 h -1.19662 v -6.084717 h 0.94827 l 0.16933,0.812801 h 0.0565 q 0.28222,-0.451556 0.75635,-0.688623 0.47414,-0.237067 1.04987,-0.237067 1.38853,0 1.85138,0.993423 h 0.0564 q 0.3048,-0.508 0.8128,-0.745067 0.51929,-0.248356 1.10632,-0.248356 z"
     id="text31"
     aria-label="iromium" />
</svg>
